# xmcd
#
# Track frame offsets:
#	150
#	11106
#	28082
#	41133
#	53396
#	71294
#	83175
#	96219
#	113471
#	126090
#	141328
#	154140
#	169271
#	185980
#	201293
#	215912
#	231274
#	249505
# Disc length: 3562 seconds
# Revision: 1
# Processed by: cddbd v1.5.1PL2 Copyright (c) Steve Scherf et al.
#
# Submitted via: libkcddb 0.31
#
DISCID=050de812
DTITLE=Axel Zwingenberger and Gottfried Böttger - Groovology
DYEAR=2004
DGENRE=Blues
TTITLE0=Boogie Salutation
TTITLE1=Bombay Breeze
TTITLE2=Bendix Bounce
TTITLE3=Home Run Boogie
TTITLE4=Waiting Room Flirt
TTITLE5=Careless Love
TTITLE6=Keep A-Rockin'
TTITLE7=Blue Magic
TTITLE8=Trouble In Mind
TTITLE9=Wandering Stars
TTITLE10=Nobody Knows You When You're Down And Out
TTITLE11=Joy Jive
TTITLE12=Just A Closer Walk With Thee
TTITLE13=Groovology
TTITLE14=Poldi's Jump
TTITLE15=Divertimento For Two Pianos In Boogie Woogie Mood
TTITLE16=Double Header
TTITLE17=Lullaby In Boogie
EXTD=On 2 Boesendorfer Grand Pianos
EXTT0=
EXTT1=
EXTT2=
EXTT3=
EXTT4=
EXTT5=
EXTT6=
EXTT7=
EXTT8=
EXTT9=
EXTT10=
EXTT11=
EXTT12=
EXTT13=
EXTT14=
EXTT15=
EXTT16=
EXTT17=
PLAYORDER=
